<svg width="24" height="24" viewBox="0 0 24 24" style="height:1.5em" fill="none" xmlns="http://www.w3.org/2000/svg">
<path d="M3 5V4.5H2.5V5H3ZM21 5H21.5V4.5H21V5ZM21 21V21.5H21.5V21H21ZM3 21H2.5V21.5H3V21ZM18 18V18.5H18.5V18H18ZM6 18H5.5V18.5H6V18ZM6 10V9.5H5.5V10H6ZM18 10H18.5V9.5H18V10ZM12.5 3C12.5 2.72386 12.2761 2.5 12 2.5C11.7239 2.5 11.5 2.72386 11.5 3H12.5ZM11.5 6.78933C11.5 7.06547 11.7239 7.28933 12 7.28933C12.2761 7.28933 12.5 7.06547 12.5 6.78933H11.5ZM8.3118 3C8.3118 2.72386 8.08794 2.5 7.8118 2.5C7.53566 2.5 7.3118 2.72386 7.3118 3H8.3118ZM7.3118 6.78933C7.3118 7.06547 7.53566 7.28933 7.8118 7.28933C8.08794 7.28933 8.3118 7.06547 8.3118 6.78933H7.3118ZM16.6882 3C16.6882 2.72386 16.4643 2.5 16.1882 2.5C15.9121 2.5 15.6882 2.72386 15.6882 3H16.6882ZM15.6882 6.78933C15.6882 7.06547 15.9121 7.28933 16.1882 7.28933C16.4643 7.28933 16.6882 7.06547 16.6882 6.78933H15.6882ZM3 5.5H21V4.5H3V5.5ZM20.5 5V21H21.5V5H20.5ZM21 20.5H3V21.5H21V20.5ZM3.5 21V5H2.5V21H3.5ZM18 17.5H6V18.5H18V17.5ZM6.5 18V10H5.5V18H6.5ZM6 10.5H18V9.5H6V10.5ZM17.5 10V18H18.5V10H17.5ZM11.5 3V6.78933H12.5V3H11.5ZM7.3118 3V6.78933H8.3118V3H7.3118ZM15.6882 3V6.78933H16.6882V3H15.6882Z" fill="#4D4D4D"/>
</svg>
